HIERARCHY
ROOT Hips
{
  OFFSET 40.9192 92.6879 18.85
  CHANNELS 6 Xposition Yposition Zposition Zrotation Xrotation Yrotation
  JOINT LeftUpLeg
  {
    OFFSET 8.64259 1.95398 -2.38835
    CHANNELS 3 Zrotation Xrotation Yrotation
    JOINT LeftLeg
    {
      OFFSET 43.7702 0 0
      CHANNELS 3 Zrotation Xrotation Yrotation
      JOINT LeftFoot
      {
        OFFSET 40.6238 0 0
        CHANNELS 3 Zrotation Xrotation Yrotation
        JOINT LeftToeBase
        {
          OFFSET 12.7242 0 0
          CHANNELS 3 Zrotation Xrotation Yrotation
          End Site
          {
            OFFSET 0 0 0
          }
        }
      }
    }
  }
  JOINT RightUpLeg
  {
    OFFSET -8.2249 1.95398 -2.59336
    CHANNELS 3 Zrotation Xrotation Yrotation
    JOINT RightLeg
    {
      OFFSET 43.5653 0 0
      CHANNELS 3 Zrotation Xrotation Yrotation
      JOINT RightFoot
      {
        OFFSET 40.6238 0 0
        CHANNELS 3 Zrotation Xrotation Yrotation
        JOINT RightToeBase
        {
          OFFSET 12.7242 0 0
          CHANNELS 3 Zrotation Xrotation Yrotation
          End Site
          {
            OFFSET 0 0 0
          }
        }
      }
    }
  }
  JOINT Spine
  {
    OFFSET 0.165834 0.87714 6.61349
    CHANNELS 3 Zrotation Xrotation Yrotation
    JOINT Spine1
    {
      OFFSET 7.38963 1.71661e-005 0
      CHANNELS 3 Zrotation Xrotation Yrotation
      JOINT Spine2
      {
        OFFSET 11.9445 1.14441e-005 0
        CHANNELS 3 Zrotation Xrotation Yrotation
        JOINT Spine3
        {
          OFFSET 14.7254 4.19617e-005 0
          CHANNELS 3 Zrotation Xrotation Yrotation
          JOINT Spine4
          {
            OFFSET 10.9679 0 0
            CHANNELS 3 Zrotation Xrotation Yrotation
            JOINT RightShoulder
            {
              OFFSET 2.46616 -1.6653 3.69651
              CHANNELS 3 Zrotation Xrotation Yrotation
              JOINT RightArm
              {
                OFFSET 13.0012 0 0
                CHANNELS 3 Zrotation Xrotation Yrotation
                JOINT RightForeArm
                {
                  OFFSET 28.7848 1.52588e-005 0
                  CHANNELS 3 Zrotation Xrotation Yrotation
                  JOINT RightHand
                  {
                    OFFSET 26.5688 1.52588e-005 0
                    CHANNELS 3 Zrotation Xrotation Yrotation
                    End Site
                    {
                      OFFSET 0 0 0
                    }
                  }
                }
              }
            }
            JOINT LeftShoulder
            {
              OFFSET 2.38034 -1.29275 -3.7523
              CHANNELS 3 Zrotation Xrotation Yrotation
              JOINT LeftArm
              {
                OFFSET 16.3182 6.10351e-005 0
                CHANNELS 3 Zrotation Xrotation Yrotation
                JOINT LeftForeArm
                {
                  OFFSET 27.0901 0 0
                  CHANNELS 3 Zrotation Xrotation Yrotation
                  JOINT LeftHand
                  {
                    OFFSET 24.5451 1.52588e-005 0
                    CHANNELS 3 Zrotation Xrotation Yrotation
                    End Site
                    {
                      OFFSET 0 0 0
                    }
                  }
                }
              }
            }
            JOINT Neck
            {
              OFFSET 5.0226 -0.0266342 0
              CHANNELS 3 Zrotation Xrotation Yrotation
              JOINT Head
              {
                OFFSET 6.69363 2.86102e-005 0
                CHANNELS 3 Zrotation Xrotation Yrotation
                End Site
                {
                  OFFSET 0 0 0
                }
              }
            }
          }
        }
      }
    }
  }
}
MOTION
Frames:	7
Frame Time:	0.0416667
24.4055 91.9358 11.4185 89.6875 -55.7852 85.2399 -167.126 27.9762 87.2499 -26.7485 10.4854 -7.61349 59.9749 0.718069 2.85647 34.1411 4.06214 5.88346 176.416 -2.94248 83.097 -48.9975 -17.7229 -9.69104 46.8205 3.36681 3.0635 47.4126 1.38178 3.91568 1.53441 7.57446 -89.0353 11.7016 3.50461 1.55558 0.0346022 3.56965 1.39967 -22.5206 2.87512 2.53736 -2.50796 2.87511 2.53735 93.7305 -43.9339 -96.1474 26.0834 -11.5989 -13.7057 -18.4845 -13.7915 -74.8238 -13.2474 -0.49458 -1.50255 -90.3844 -48.5831 77.8349 -37.0866 8.86403 28.1339 1.87252 16.0196 -18.2333 5.0927 0.576568 5.84918 12.2721 -0.627999 -1.28329 -2.28811 -0.277224 2.5198 
29.6704 92.3433 15.1173 90.5355 -53.866 85.824 -167.219 25.4569 86.2831 -30.522 12.15 -8.39244 63.7473 3.88594 4.71864 30.0562 0.751166 3.06772 178.907 2.84543 83.5254 -59.272 -10.3673 -8.41612 38.3741 5.07231 5.171 36.1311 0.415795 -5.05684 1.2936 7.57757 -89.0685 11.6987 3.01002 1.5415 0.0305194 3.07493 1.40744 -22.5168 2.40766 2.37502 -2.50412 2.40766 2.37502 93.8624 -44.0691 -95.9019 27.6316 -11.8895 -8.30259 -16.2539 -16.4323 -69.3506 -13.0014 -0.456913 -1.80209 -91.0406 -48.2212 76.756 -36.8843 9.23658 25.6554 2.59373 15.4141 -20.4351 4.58922 0.518727 5.59799 11.8081 -0.215734 -0.818682 -2.37697 0.0172295 2.37769 
34.5904 93.3791 18.6908 91.4726 -51.3533 86.1653 -168.305 20.8881 85.0121 -30.2639 11.9011 -8.03031 64.8705 4.74972 4.33882 29.2166 0.0993422 2.54476 179.685 9.24433 83.8494 -66.7836 -2.29967 -6.55536 40.9749 3.22355 3.28639 31.4839 0.3479 -5.2223 0.951019 7.64572 -89.1051 11.5656 2.31076 1.54515 -0.104058 2.37652 1.44193 -22.6422 1.73968 2.16815 -2.62959 1.73966 2.16815 94.5592 -45.8253 -94.4522 27.4693 -12.0578 -3.88651 -16.3397 -19.8159 -63.704 -11.5941 -0.436622 -1.99408 -92.152 -47.7335 74.9418 -36.3404 10.3845 21.3274 2.71896 13.4147 -23.583 6.96639 0.642661 4.58855 11.2399 -0.182463 -1.1468 -2.22721 0.129937 2.92432 
39.4075 94.7487 22.2665 91.948 -48.1289 87.7753 -169.622 15.9269 85.4481 -28.0962 12.1145 -7.05357 65.1151 4.95211 4.34031 30.662 1.47672 0.142905 179.467 14.9437 85.9145 -69.4461 0.755224 -4.96757 46.7354 1.25935 1.30387 30.1172 0.394337 -6.31488 0.579419 7.67729 -89.3476 11.5118 1.45786 1.15114 -0.15874 1.50712 1.08586 -22.6937 1.04454 1.53604 -2.68108 1.04454 1.53603 95.2865 -46.7811 -93.1274 27.5817 -11.8734 0.770233 -14.8581 -23.3906 -58.5656 -12.2672 -0.745548 0.645952 -92.4849 -47.3871 74.3426 -34.5243 11.5462 16.1874 3.31294 11 -29.079 10.3203 0.873527 4.28011 10.5415 0.180042 -1.16343 -2.22629 0.489881 3.26914 
44.2006 95.9745 25.5323 91.9056 -45.1357 88.6775 -171.065 11.4444 85.6666 -25.6445 15.3163 -5.96798 64.5421 4.36512 4.58083 31.8304 2.27282 2.27093 178.9 20.1127 87.5764 -67.1996 0.993328 -3.96295 51.5326 -0.0857891 0.154231 33.0459 0.382306 -6.02571 0.215666 7.66453 -89.5708 11.5412 0.629861 0.790037 -0.129837 0.664034 0.761543 -22.6634 0.363319 0.942798 -2.65078 0.363315 0.942795 95.4829 -47.4116 -92.7221 28.4757 -11.0527 5.99557 -12.8896 -25.5467 -52.0621 -10.2363 -0.716185 0.665708 -93.0606 -47.4379 73.4778 -31.901 11.5026 11.6662 3.65241 7.16795 -36.0885 13.2865 1.02051 3.68347 9.47523 0.453546 -0.937613 -2.20478 0.71762 3.795 
48.6814 96.8749 29.0996 91.7695 -41.7646 88.7506 -172.102 6.70671 85.9556 -22.8422 16.9691 -4.90136 63.8534 3.46853 3.19622 33.4542 3.54132 3.99032 177.815 23.1928 88.5195 -59.7945 0.170189 -3.14436 57.7764 -1.51927 -0.89383 35.5423 0.364878 -5.87689 -0.190541 7.66137 -89.6431 11.5514 -0.211907 0.733043 -0.119788 -0.179434 0.741646 -22.6538 -0.422408 0.63547 -2.64112 -0.422412 0.635475 95.8711 -48.3246 -91.9847 28.9684 -9.02173 10.6541 -11.0262 -27.8132 -45.8382 -6.41214 -0.727532 2.18833 -92.9156 -46.7162 73.4989 -29.1675 11.4498 6.28833 3.17386 3.88704 -42.7046 16.4412 1.13541 3.02579 8.32227 0.617642 -2.08596 -1.7432 1.12762 4.93983 
52.9622 97.146 32.7594 91.2658 -38.531 88.5226 -172.046 2.77616 86.6699 -20.8756 18.63 -4.65127 63.0447 2.42551 1.98261 36.6399 6.23756 5.51452 176.618 24.39 89.1396 -46.7482 0.872185 -2.00942 61.5475 -2.38686 -1.39774 35.7963 0.365069 -4.76024 -0.535418 7.6272 -89.6972 11.6222 -0.923144 0.699179 -0.0485809 -0.891479 0.739122 -22.5858 -1.0906 0.389389 -2.57314 -1.09059 0.389384 96.3032 -49.4063 -91.1717 28.7116 -6.79133 15.2566 -10.2675 -29.7239 -41.019 -2.89705 -0.700189 3.93869 -93.2571 -45.6528 72.6672 -25.3386 11.7247 0.372599 5.39182 4.40269 -48.4512 16.4032 0.961505 1.98693 6.90799 0.58327 -2.20601 -0.440669 1.13692 4.69774 
